# xmcd
#
# Track frame offsets:
#	150
#	17762
#	49650
#	83175
#	104520
#	125875
#
# Disc length: 1962 seconds
# Revision: 7
# Processed by: cddbd v1.5.2PL0 Copyright (c) Steve Scherf et al.
# Submitted via: dBpowerAMP V12.0
#
DISCID=4c07a806
DTITLE=Shania Twain - Come on Over [Australian Tour Bonus Disc]
DYEAR=1998
DGENRE=Country
TTITLE0=God Bless The Child [Single Mix]
TTITLE1=(If You're Not In It for Love) I'm Outta Here [Live/Direct TV Mix]
TTITLE2=Medley: Home Ain't Where His Heart Is (Anymore) - The Woman In Me - You've Got A Way
TTITLE3=From This Moment On [Original U.S. Version - A.K.A. Country Version]
TTITLE4=Love Gets Me Every Time [Dance Mix]
TTITLE5=Don't Be Stupid (You Know I Love You) [Extended Dance Mix]
EXTD=
EXTT0=
EXTT1=
EXTT2=
EXTT3=
EXTT4=
EXTT5=
PLAYORDER=
